<?xml version="1.0" encoding="UTF-8"?>
<!DOCTYPE svg PUBLIC "-//W3C//DTD SVG 1.1//EN" "http://www.w3.org/Graphics/SVG/1.1/DTD/svg11.dtd">
<svg version="1.1" xmlns="http://www.w3.org/2000/svg" xmlns:xlink="http://www.w3.org/1999/xlink" x="0" y="0" width="164.832" height="167.419" viewBox="0, 0, 164.832, 167.419">
  <g id="shishamo-nav-logo" transform="translate(-0, -0)">
    <path d="M131.318,135.01 C129.696,135.659 127.104,135.659 126.883,137.719 C127.754,138.585 127.857,139.993 128.62,141.191 C129.913,143.358 132.179,146.281 134.237,147.802 C136.508,149.537 138.779,151.265 141.16,152.783 C145.373,155.395 150.132,156.906 154.234,159.509 C156.62,161.025 158.99,162.974 161.376,164.605 C162.561,165.471 163.312,166.883 164.832,167.419 L164.832,167.091 C164.07,166.118 163.857,164.709 163.104,163.618 C162.025,162.543 160.942,161.561 159.859,160.482 C156.722,156.255 152.825,152.573 148.619,149.537 C145.156,147.146 137.573,143.879 136.233,139.859 C135.964,139.052 138.936,138.212 140.041,137.881 L150.757,135.287 C148.801,133.34 145.508,128.799 143.578,126.828 C138.273,121.413 137.123,119.83 130.854,115.921 C122.435,110.025 121.484,107.586 120.724,106.496 C118.777,104.112 117.692,100.973 116.289,98.15 C113.157,92.195 110.124,85.585 107.426,79.287 C105.482,75.063 104.292,70.838 101.913,66.933 C90.772,48.502 77.525,39.086 60.074,26.393 C55.824,23.303 53.614,20.931 49.516,18.127 C47.279,16.597 20.581,-2.355 19.753,0.245 C16.785,9.574 20.682,31.677 1.76,11.926 C1.167,11.307 0.621,13.462 0.109,16.499 C-0.595,20.674 2.276,27.826 4.227,34.762 C5.065,37.74 15.658,54.436 16.949,57.25 C22.084,69.349 24.498,72.463 26.773,76.91 C27.958,79.186 36.755,92.136 40.477,97.042 L51.981,108.885 C53.494,111.916 55.547,113.753 56.951,116.798 C60.307,122.104 64.504,127.31 69.373,130.992 C71.96,132.951 74.016,136.305 77.259,137.501 L77.259,137.174 L77.047,137.174 C76.395,136.201 75.425,135.764 74.559,135.009 C72.614,133.056 70.457,130.671 68.937,128.504 C64.398,122.436 60.819,115.475 56.833,108.775 C53.087,102.48 48.267,96.399 47.107,95.171 C35.278,82.66 33.205,76.174 32.018,74.541 C24.638,61.222 24.701,59.79 21.283,54.046 C13.994,41.795 7.16,30.211 4.968,21.944 C4.661,20.785 3.434,17.588 8.81,22.196 C13.234,25.988 18.868,20.838 20.987,16.442 C21.856,14.637 22.28,7.156 24.222,7.703 L36.835,15.143 C50.112,24.094 59.099,32.895 63.751,35.823 C77.908,44.82 89.585,57.614 97.473,72.896 C98.773,75.385 99.319,77.664 100.506,80.261 C102.777,85.583 105.59,91.003 107.856,96.201 C110.124,101.296 112.291,106.495 115.539,110.728 C117.156,113.001 119.865,115.804 122.785,116.997 C124.942,117.97 128.65,120.752 130.426,122.186 C133.299,124.507 133.741,125.281 137.61,128.707 C139.227,130.14 140.815,131.249 141.612,133.27" fill="#9CC6EF"/>
    <g>
      <path d="M32.014,28.479 C32.994,29.214 34.055,29.592 37.779,29.606 C41.503,29.62 42.37,26.144 42.37,26.144 L43.331,22.383 C43.331,20.786 41.926,18.544 40.572,17.275 C39.227,16.014 37.546,15.006 35.361,14.922 C35.211,14.916 33.176,14.922 33.176,14.922 C31.651,16.001 30.055,16.285 29.886,18.302 C29.803,19.304 28.971,23.429 29.516,24.191 C30.163,25.273 32.584,29.049 32.584,29.049" fill="#00758F" display="none"/>
      <path d="M32.014,28.479 C32.994,29.214 34.055,29.592 37.779,29.606 C41.503,29.62 42.37,26.144 42.37,26.144 L43.331,22.383 C43.331,20.786 41.926,18.544 40.572,17.275 C39.227,16.014 37.546,15.006 35.361,14.922 C35.211,14.916 33.176,14.922 33.176,14.922 C31.651,16.001 30.055,16.285 29.886,18.302 C29.803,19.304 28.971,23.429 29.516,24.191 C30.163,25.273 32.584,29.049 32.584,29.049" fill-opacity="0" stroke="#00758F" stroke-width="4" display="none"/>
    </g>
    <path d="M32.212,22.609 C33.221,23.029 34.21,23.063 35.515,22.741 L36.175,22.08 L36.704,20.363 C36.704,18.766 36.5,17.295 34.723,16.761 C33.442,16.377 33.615,16.538 32.994,16.505 C32.844,16.497 31.969,16.598 31.969,16.598 C31.201,16.918 31.393,16.598 30.752,17.174 C30.005,17.847 29.549,18.261 29.6,18.712 C29.741,19.964 29.497,20.287 30.363,21.156" fill="#00758F" display="none"/>
    <path d="M33.037,12.25 C33.037,12.25 28.989,13.779 28.09,16.117 C27.19,18.456 27.029,21.364 27.096,22.957 C27.187,25.122 30.069,29.61 30.878,29.88 C31.688,30.149 36.545,32.398 40.683,30.599 C44.82,28.8 45.27,22.414 44.82,20.615 C44.371,18.816 38.884,13.779 38.884,13.779 C38.884,13.779 36.856,16.568 36.856,16.568 C36.856,16.568 40.593,19.086 40.953,21.874 C41.312,24.663 39.783,26.911 38.614,27.001 C37.445,27.091 31.44,27.722 30.72,23.944 C30,20.166 30.546,18.922 32.228,17.107 C33.308,15.94 37.098,16.744 37.098,16.744 C37.098,16.744 39.484,13.579 39.484,13.579 C39.484,13.579 33.127,12.07 33.037,12.25 z" fill="#9CC6EF"/>
  </g>
</svg>
