<?xml version="1.0" encoding="UTF-8"?>
<!DOCTYPE svg PUBLIC "-//W3C//DTD SVG 1.1//EN" "http://www.w3.org/Graphics/SVG/1.1/DTD/svg11.dtd">
<svg version="1.1" xmlns="http://www.w3.org/2000/svg" xmlns:xlink="http://www.w3.org/1999/xlink" x="0" y="0" width="132.98" height="132.978" viewBox="0, 0, 132.98, 132.978">
  <g id="レイヤー_3" transform="translate(-299.016, -120)">
    <path d="M431.996,216 C431.996,216 336,120 336,120 C336,120 299.016,120 299.016,120 C299.016,120 431.996,252.978 431.996,252.978 C431.996,252.978 431.996,216 431.996,216 z" fill="#4479A1"/>
    <path d="M330.373,138.632 L337.501,131.504 L342.094,136.098 L341.52,136.672 L337.6,132.752 L335.026,135.326 L338.59,138.889 L338.015,139.464 L334.452,135.9 L331.046,139.305 z" fill="#FFFFFF"/>
    <path d="M337.758,146.294 Q337.273,145.789 337.011,145.19 Q336.748,144.592 336.763,143.933 Q336.778,143.275 337.095,142.582 Q337.412,141.889 338.085,141.216 Q338.649,140.652 339.288,140.31 Q339.926,139.968 340.589,139.899 Q341.253,139.83 341.911,140.063 Q342.569,140.295 343.163,140.889 Q343.767,141.493 344,142.151 Q344.232,142.81 344.168,143.468 Q344.104,144.126 343.752,144.765 Q343.401,145.403 342.837,145.968 Q342.223,146.581 341.56,146.908 Q340.896,147.235 340.228,147.279 Q339.56,147.324 338.926,147.076 Q338.293,146.829 337.758,146.294 z M342.203,145.334 Q342.658,144.879 342.955,144.384 Q343.252,143.889 343.336,143.389 Q343.421,142.889 343.262,142.394 Q343.104,141.899 342.629,141.424 Q342.163,140.958 341.649,140.81 Q341.134,140.661 340.624,140.755 Q340.114,140.85 339.624,141.142 Q339.134,141.434 338.718,141.849 Q338.243,142.325 337.956,142.839 Q337.669,143.354 337.6,143.859 Q337.53,144.364 337.699,144.849 Q337.867,145.334 338.293,145.76 Q338.758,146.225 339.273,146.373 Q339.787,146.522 340.302,146.423 Q340.817,146.324 341.302,146.037 Q341.787,145.75 342.203,145.334 z" fill="#FFFFFF"/>
    <path d="M341.985,150.244 L341.391,149.65 L346.519,144.522 L347.113,145.116 L346.153,146.076 L346.173,146.096 Q347.034,145.73 347.667,145.878 Q348.301,146.027 348.945,146.67 L348.301,147.314 Q347.806,146.799 347.311,146.641 Q346.816,146.482 346.336,146.576 Q345.856,146.67 345.391,146.987 Q344.925,147.304 344.5,147.73 z" fill="#FFFFFF"/>
    <path d="M344.618,152.877 L351.746,145.75 L352.34,146.344 L347.905,150.779 L352.855,150.858 L353.667,151.67 L349.895,151.6 L348.766,157.025 L348.103,156.362 L349.044,151.581 L347.153,151.531 L345.212,153.471 z" fill="#FFFFFF"/>
    <path d="M352.875,161.134 L352.281,160.54 L357.409,155.412 L358.003,156.006 L357.23,156.778 L357.25,156.798 Q357.923,156.58 358.582,156.773 Q359.24,156.966 359.745,157.471 Q360.101,157.827 360.27,158.154 Q360.438,158.481 360.477,158.787 Q360.517,159.094 360.453,159.386 Q360.388,159.678 360.26,159.965 Q361.022,159.718 361.695,159.906 Q362.368,160.094 362.923,160.648 Q363.447,161.173 363.586,161.658 Q363.724,162.143 363.611,162.594 Q363.497,163.044 363.185,163.465 Q362.873,163.886 362.487,164.272 L359.25,167.509 L358.656,166.915 L362.2,163.371 Q362.754,162.816 362.838,162.267 Q362.923,161.718 362.289,161.084 Q361.962,160.757 361.517,160.599 Q361.071,160.441 360.547,160.51 Q360.319,160.54 360.081,160.648 Q359.844,160.757 359.616,160.906 Q359.388,161.054 359.186,161.228 Q358.983,161.401 358.824,161.559 L356.062,164.321 L355.468,163.727 L359.012,160.183 Q359.567,159.629 359.651,159.079 Q359.735,158.53 359.101,157.896 Q358.775,157.57 358.329,157.411 Q357.884,157.253 357.359,157.322 Q357.131,157.352 356.894,157.461 Q356.656,157.57 356.429,157.718 Q356.201,157.867 355.998,158.04 Q355.795,158.213 355.637,158.372 z" fill="#FFFFFF"/>
    <path d="M367.239,169.657 Q367.615,169.281 367.843,168.845 Q368.07,168.41 368.11,167.964 Q368.15,167.519 367.986,167.068 Q367.823,166.618 367.427,166.222 Q367.031,165.826 366.58,165.672 Q366.13,165.519 365.67,165.554 Q365.209,165.588 364.754,165.786 Q364.299,165.984 363.893,166.311 z M363.398,166.806 Q362.982,167.222 362.72,167.702 Q362.457,168.182 362.398,168.667 Q362.339,169.152 362.502,169.642 Q362.665,170.132 363.091,170.558 Q363.675,171.142 364.398,171.251 Q365.12,171.36 365.823,170.934 L366.486,171.597 Q366.011,171.855 365.521,171.988 Q365.031,172.122 364.531,172.087 Q364.031,172.053 363.536,171.815 Q363.041,171.578 362.556,171.092 Q361.943,170.479 361.705,169.825 Q361.467,169.172 361.542,168.524 Q361.616,167.875 361.967,167.247 Q362.319,166.618 362.883,166.054 Q363.447,165.489 364.106,165.158 Q364.764,164.826 365.437,164.757 Q366.11,164.687 366.759,164.91 Q367.407,165.133 367.961,165.687 Q369.021,166.747 368.897,168.078 Q368.773,169.41 367.377,170.786 z" fill="#FFFFFF"/>
    <path d="M370.763,179.299 Q370.278,178.794 370.016,178.195 Q369.753,177.596 369.768,176.938 Q369.783,176.28 370.1,175.587 Q370.417,174.894 371.09,174.221 Q371.654,173.656 372.293,173.315 Q372.931,172.973 373.594,172.904 Q374.258,172.835 374.916,173.067 Q375.574,173.3 376.168,173.894 Q376.772,174.498 377.005,175.156 Q377.237,175.815 377.173,176.473 Q377.109,177.131 376.757,177.77 Q376.406,178.408 375.841,178.972 Q375.228,179.586 374.564,179.913 Q373.901,180.24 373.233,180.284 Q372.565,180.329 371.931,180.081 Q371.298,179.834 370.763,179.299 z M375.208,178.339 Q375.663,177.883 375.96,177.389 Q376.257,176.894 376.341,176.394 Q376.426,175.894 376.267,175.399 Q376.109,174.904 375.634,174.429 Q375.168,173.963 374.654,173.815 Q374.139,173.666 373.629,173.76 Q373.119,173.854 372.629,174.146 Q372.139,174.438 371.723,174.854 Q371.248,175.329 370.961,175.844 Q370.674,176.359 370.605,176.864 Q370.535,177.369 370.704,177.854 Q370.872,178.339 371.298,178.765 Q371.763,179.23 372.278,179.378 Q372.792,179.527 373.307,179.428 Q373.822,179.329 374.307,179.042 Q374.792,178.755 375.208,178.339 z" fill="#FFFFFF"/>
    <path d="M374.96,183.219 L374.366,182.625 L379.494,177.497 L380.088,178.091 L379.376,178.804 Q380.108,178.784 380.727,178.928 Q381.346,179.071 381.88,179.606 Q382.355,180.081 382.598,180.65 Q382.84,181.22 382.712,181.903 Q382.623,182.368 382.365,182.695 Q382.108,183.021 381.791,183.338 L378.435,186.694 L377.841,186.1 L381.187,182.754 Q381.88,182.061 381.92,181.408 Q381.959,180.754 381.247,180.042 Q380.969,179.764 380.658,179.621 Q380.346,179.477 380.024,179.433 Q379.702,179.388 379.395,179.438 Q379.089,179.487 378.821,179.616 Q378.485,179.774 378.237,179.982 Q377.99,180.19 377.722,180.457 z" fill="#FFFFFF"/>
    <path d="M388.849,190.891 L389.424,190.317 L392.473,193.366 L388.79,197.049 L388.216,196.475 L389.434,195.257 Q388.929,195.386 388.424,195.406 Q387.919,195.425 387.419,195.292 Q386.919,195.158 386.404,194.841 Q385.889,194.525 385.365,194 Q384.692,193.327 384.355,192.515 Q384.018,191.703 384.073,190.817 Q384.127,189.931 384.608,188.986 Q385.088,188.04 386.038,187.09 Q386.82,186.308 387.696,185.828 Q388.572,185.348 389.483,185.259 Q390.394,185.17 391.3,185.501 Q392.205,185.833 393.047,186.674 Q393.611,187.239 393.963,187.867 Q394.314,188.496 394.423,189.169 Q394.532,189.842 394.378,190.53 Q394.225,191.218 393.77,191.911 L393.077,191.218 Q393.383,190.733 393.487,190.203 Q393.591,189.674 393.507,189.164 Q393.423,188.654 393.171,188.174 Q392.918,187.694 392.522,187.298 Q391.819,186.595 391.067,186.338 Q390.315,186.08 389.537,186.204 Q388.76,186.328 387.978,186.803 Q387.196,187.278 386.444,188.03 Q385.85,188.624 385.489,189.332 Q385.127,190.04 385.053,190.778 Q384.979,191.515 385.221,192.233 Q385.464,192.951 386.078,193.564 Q386.365,193.851 386.736,194.094 Q387.107,194.336 387.543,194.475 Q387.978,194.614 388.463,194.624 Q388.948,194.633 389.473,194.465 Q389.978,194.297 390.409,193.995 Q390.839,193.693 391.255,193.297 z" fill="#FFFFFF"/>
    <path d="M390.414,198.672 L395.542,193.544 L396.135,194.138 L391.008,199.266 z M396.63,192.396 L397.512,191.515 L398.165,192.168 L397.284,193.05 z" fill="#FFFFFF"/>
    <path d="M394.304,202.603 Q394.175,202.513 393.948,202.385 Q393.72,202.256 393.502,202.038 Q393.057,201.593 393.047,201.137 Q393.037,200.682 393.611,200.108 L397.363,196.356 L396.64,195.633 L397.135,195.138 L397.858,195.861 L399.284,194.435 L399.878,195.029 L398.452,196.455 L399.412,197.415 L398.917,197.91 L397.957,196.95 L394.443,200.464 Q394.255,200.652 394.126,200.801 Q393.997,200.949 393.958,201.088 Q393.918,201.226 393.982,201.37 Q394.047,201.514 394.235,201.702 Q394.354,201.82 394.497,201.924 Q394.641,202.028 394.789,202.117 z" fill="#FFFFFF"/>
    <path d="M395.353,203.612 L402.481,196.485 L403.154,197.158 L400.095,200.217 L404.312,204.434 L407.371,201.375 L408.045,202.048 L400.917,209.176 L400.244,208.503 L403.738,205.008 L399.521,200.791 L396.027,204.285 z" fill="#FFFFFF"/>
    <path d="M411.024,209.027 L411.618,209.621 L406.49,214.749 L405.896,214.155 L406.609,213.442 Q406.352,213.462 406.055,213.462 Q405.758,213.462 405.441,213.393 Q405.124,213.324 404.783,213.15 Q404.441,212.977 404.105,212.641 Q403.59,212.126 403.387,211.636 Q403.184,211.146 403.228,210.676 Q403.273,210.205 403.521,209.77 Q403.768,209.334 404.174,208.928 L407.55,205.553 L408.144,206.147 L404.778,209.512 Q404.115,210.176 404.07,210.834 Q404.025,211.492 404.728,212.195 Q405.095,212.561 405.53,212.71 Q405.966,212.858 406.421,212.799 Q406.876,212.74 407.342,212.492 Q407.807,212.245 408.233,211.819 z" fill="#FFFFFF"/>
    <path d="M411.173,214.264 Q410.708,214.729 410.42,215.244 Q410.133,215.759 410.059,216.269 Q409.985,216.779 410.143,217.274 Q410.302,217.769 410.717,218.184 Q411.094,218.56 411.544,218.744 Q411.995,218.927 412.489,218.907 Q412.984,218.887 413.489,218.65 Q413.994,218.412 414.479,217.927 Q414.984,217.462 415.306,216.942 Q415.628,216.422 415.727,215.888 Q415.826,215.353 415.667,214.828 Q415.509,214.304 415.053,213.848 Q414.648,213.442 414.153,213.294 Q413.658,213.145 413.143,213.215 Q412.628,213.284 412.118,213.556 Q411.608,213.829 411.173,214.264 z M408.589,216.848 L407.995,216.254 L415.123,209.126 L415.717,209.72 L412.895,212.542 Q413.658,212.354 414.4,212.611 Q415.143,212.868 415.687,213.413 Q416.271,213.997 416.479,214.65 Q416.687,215.304 416.598,215.957 Q416.509,216.61 416.152,217.244 Q415.796,217.877 415.261,218.412 Q414.697,218.976 414.073,219.343 Q413.45,219.709 412.806,219.788 Q412.163,219.867 411.519,219.64 Q410.876,219.412 410.252,218.788 Q410.005,218.541 409.817,218.214 Q409.629,217.887 409.515,217.516 Q409.401,217.145 409.391,216.749 Q409.381,216.353 409.51,215.967 L409.49,215.947 z" fill="#FFFFFF"/>
  </g>
</svg>
