<?xml version="1.0" encoding="UTF-8"?>
<!DOCTYPE svg PUBLIC "-//W3C//DTD SVG 1.1//EN" "http://www.w3.org/Graphics/SVG/1.1/DTD/svg11.dtd">
<svg version="1.1" xmlns="http://www.w3.org/2000/svg" xmlns:xlink="http://www.w3.org/1999/xlink" x="0" y="0" width="165.326" height="167.419" viewBox="0, 0, 165.326, 167.419">
  <g id="shishamo-nav-logo-4" transform="translate(-99.506, -0)">
    <path d="M231.318,135.01 C229.696,135.659 227.104,135.659 226.883,137.719 C227.754,138.585 227.857,139.993 228.62,141.191 C229.913,143.358 232.179,146.281 234.237,147.802 C236.508,149.537 238.779,151.265 241.16,152.783 C245.373,155.395 250.132,156.906 254.234,159.509 C256.62,161.025 258.99,162.974 261.376,164.605 C262.561,165.471 263.312,166.883 264.832,167.419 L264.832,167.091 C264.07,166.118 263.857,164.709 263.104,163.618 C262.025,162.543 260.942,161.561 259.859,160.482 C256.722,156.255 252.825,152.573 248.619,149.537 C245.156,147.146 237.573,143.879 236.233,139.859 C235.964,139.052 238.936,138.212 240.041,137.881 L250.757,135.287 C248.801,133.34 245.508,128.799 243.578,126.828 C238.273,121.413 237.123,119.83 230.854,115.921 C222.435,110.025 221.484,107.586 220.724,106.496 C218.777,104.112 217.692,100.973 216.289,98.15 C213.157,92.195 210.124,85.585 207.426,79.287 C205.482,75.063 204.292,70.838 201.913,66.933 C190.772,48.502 177.525,39.086 160.074,26.393 C155.824,23.303 153.614,20.931 149.516,18.127 C147.279,16.597 120.581,-2.355 119.753,0.245 C116.785,9.574 121.745,26.706 101.007,14.919 C100.493,14.628 100.02,14.267 99.824,14.919 C98.388,19.708 102.161,28.962 104.227,34.762 C105.265,37.676 115.658,54.436 116.949,57.25 C122.084,69.349 124.498,72.463 126.773,76.91 C127.958,79.186 136.755,92.136 140.477,97.042 L151.981,108.885 C153.494,111.916 155.547,113.753 156.951,116.798 C160.307,122.104 164.504,127.31 169.373,130.992 C171.96,132.951 174.016,136.305 177.259,137.501 L177.259,137.174 L177.047,137.174 C176.395,136.201 175.425,135.764 174.559,135.009 C172.614,133.056 170.457,130.671 168.937,128.504 C164.398,122.436 160.819,115.475 156.833,108.775 C153.087,102.48 148.267,96.399 147.107,95.171 C135.278,82.66 133.205,76.174 132.018,74.541 C124.638,61.222 124.701,59.79 121.283,54.046 C113.994,41.795 107.515,30.105 104.9,21.962 C104.676,21.266 106.763,22.409 109.345,22.957 C115.045,24.165 118.868,20.838 120.987,16.442 C121.856,14.637 122.28,7.156 124.222,7.703 L136.835,15.143 C150.112,24.094 159.099,32.895 163.751,35.823 C177.908,44.82 189.585,57.614 197.473,72.896 C198.773,75.385 199.319,77.664 200.506,80.261 C202.777,85.583 205.59,91.003 207.856,96.201 C210.124,101.296 212.291,106.495 215.539,110.728 C217.156,113.001 219.865,115.804 222.785,116.997 C224.942,117.97 228.65,120.752 230.426,122.186 C233.299,124.507 233.741,125.281 237.61,128.707 C239.227,130.14 240.815,131.249 241.612,133.27" fill="#9CC6EF" display="none"/>
    <path d="M231.318,135.01 C229.696,135.659 227.104,135.659 226.883,137.719 C227.754,138.585 227.857,139.993 228.62,141.191 C229.913,143.358 232.179,146.281 234.237,147.802 C236.508,149.537 238.779,151.265 241.16,152.783 C245.373,155.395 250.132,156.906 254.234,159.509 C256.62,161.025 258.99,162.974 261.376,164.605 C262.561,165.471 263.312,166.883 264.832,167.419 L264.832,167.091 C264.07,166.118 263.857,164.709 263.104,163.618 C262.025,162.543 260.942,161.561 259.859,160.482 C256.722,156.255 252.825,152.573 248.619,149.537 C245.156,147.146 237.573,143.879 236.233,139.859 C235.964,139.052 238.936,138.212 240.041,137.881 L250.757,135.287 C248.801,133.34 245.508,128.799 243.578,126.828 C238.273,121.413 237.123,119.83 230.854,115.921 C222.435,110.025 221.484,107.586 220.724,106.496 C218.777,104.112 217.692,100.973 216.289,98.15 C213.157,92.195 210.124,85.585 207.426,79.287 C205.482,75.063 204.292,70.838 201.913,66.933 C190.772,48.502 177.525,39.086 160.074,26.393 C155.824,23.303 153.614,20.931 149.516,18.127 C147.279,16.597 120.581,-2.355 119.753,0.245 C116.785,9.574 121.745,26.706 101.007,14.919 C100.493,14.628 100.02,14.267 99.824,14.919 C98.388,19.708 102.161,28.962 104.227,34.762 C105.265,37.676 115.658,54.436 116.949,57.25 C122.084,69.349 124.498,72.463 126.773,76.91 C127.958,79.186 136.755,92.136 140.477,97.042 L151.981,108.885 C153.494,111.916 155.547,113.753 156.951,116.798 C160.307,122.104 164.504,127.31 169.373,130.992 C171.96,132.951 174.016,136.305 177.259,137.501 L177.259,137.174 L177.047,137.174 C176.395,136.201 175.425,135.764 174.559,135.009 C172.614,133.056 170.457,130.671 168.937,128.504 C164.398,122.436 160.819,115.475 156.833,108.775 C153.087,102.48 148.267,96.399 147.107,95.171 C135.278,82.66 133.205,76.174 132.018,74.541 C124.638,61.222 124.701,59.79 121.283,54.046 C113.994,41.795 107.515,30.105 104.9,21.962 C104.676,21.266 106.763,22.409 109.345,22.957 C115.045,24.165 118.868,20.838 120.987,16.442 C121.856,14.637 122.28,7.156 124.222,7.703 L136.835,15.143 C150.112,24.094 159.099,32.895 163.751,35.823 C177.908,44.82 189.585,57.614 197.473,72.896 C198.773,75.385 199.319,77.664 200.506,80.261 C202.777,85.583 205.59,91.003 207.856,96.201 C210.124,101.296 212.291,106.495 215.539,110.728 C217.156,113.001 219.865,115.804 222.785,116.997 C224.942,117.97 228.65,120.752 230.426,122.186 C233.299,124.507 233.741,125.281 237.61,128.707 C239.227,130.14 240.815,131.249 241.612,133.27" fill="#9CC6EF" display="none"/>
    <path d="M231.318,135.01 C229.696,135.659 227.104,135.659 226.883,137.719 C227.754,138.585 227.857,139.993 228.62,141.191 C229.913,143.358 232.179,146.281 234.237,147.802 C236.508,149.537 238.779,151.265 241.16,152.783 C245.373,155.395 250.132,156.906 254.234,159.509 C256.62,161.025 258.99,162.974 261.376,164.605 C262.561,165.471 263.312,166.883 264.832,167.419 L264.832,167.091 C264.07,166.118 263.857,164.709 263.104,163.618 C262.025,162.543 260.942,161.561 259.859,160.482 C256.722,156.255 252.825,152.573 248.619,149.537 C245.156,147.146 237.573,143.879 236.233,139.859 C235.964,139.052 238.936,138.212 240.041,137.881 L250.757,135.287 C248.801,133.34 245.508,128.799 243.578,126.828 C238.273,121.413 237.123,119.83 230.854,115.921 C222.435,110.025 221.484,107.586 220.724,106.496 C218.777,104.112 217.692,100.973 216.289,98.15 C213.157,92.195 210.124,85.585 207.426,79.287 C205.482,75.063 204.292,70.838 201.913,66.933 C190.772,48.502 177.525,39.086 160.074,26.393 C155.824,23.303 153.614,20.931 149.516,18.127 C147.279,16.597 120.581,-2.355 119.753,0.245 C116.785,9.574 121.745,26.706 101.007,14.919 C100.493,14.628 100.02,14.267 99.824,14.919 C98.388,19.708 102.161,28.962 104.227,34.762 C105.265,37.676 115.658,54.436 116.949,57.25 C122.084,69.349 124.498,72.463 126.773,76.91 C127.958,79.186 136.755,92.136 140.477,97.042 L151.981,108.885 C153.494,111.916 155.547,113.753 156.951,116.798 C160.307,122.104 164.504,127.31 169.373,130.992 C171.96,132.951 174.016,136.305 177.259,137.501 L177.259,137.174 L177.047,137.174 C176.395,136.201 175.425,135.764 174.559,135.009 C172.614,133.056 170.457,130.671 168.937,128.504 C164.398,122.436 160.819,115.475 156.833,108.775 C153.087,102.48 148.267,96.399 147.107,95.171 C135.278,82.66 133.205,76.174 132.018,74.541 C124.638,61.222 124.701,59.79 121.283,54.046 C113.994,41.795 107.515,30.105 104.9,21.962 C104.676,21.266 106.763,22.409 109.345,22.957 C115.045,24.165 118.868,20.838 120.987,16.442 C121.856,14.637 122.28,7.156 124.222,7.703 L136.835,15.143 C150.112,24.094 159.099,32.895 163.751,35.823 C177.908,44.82 189.585,57.614 197.473,72.896 C198.773,75.385 199.319,77.664 200.506,80.261 C202.777,85.583 205.59,91.003 207.856,96.201 C210.124,101.296 212.291,106.495 215.539,110.728 C217.156,113.001 219.865,115.804 222.785,116.997 C224.942,117.97 228.65,120.752 230.426,122.186 C233.299,124.507 233.741,125.281 237.61,128.707 C239.227,130.14 240.815,131.249 241.612,133.27" fill="#9CC6EF" display="none"/>
    <path d="M231.318,135.01 C229.696,135.659 227.104,135.659 226.883,137.719 C227.754,138.585 227.857,139.993 228.62,141.191 C229.913,143.358 232.179,146.281 234.237,147.802 C236.508,149.537 238.779,151.265 241.16,152.783 C245.373,155.395 250.132,156.906 254.234,159.509 C256.62,161.025 258.99,162.974 261.376,164.605 C262.561,165.471 263.312,166.883 264.832,167.419 L264.832,167.091 C264.07,166.118 263.857,164.709 263.104,163.618 C262.025,162.543 260.942,161.561 259.859,160.482 C256.722,156.255 252.825,152.573 248.619,149.537 C245.156,147.146 237.573,143.879 236.233,139.859 C235.964,139.052 238.936,138.212 240.041,137.881 L250.757,135.287 C248.801,133.34 245.508,128.799 243.578,126.828 C238.273,121.413 237.123,119.83 230.854,115.921 C222.435,110.025 221.484,107.586 220.724,106.496 C218.777,104.112 217.692,100.973 216.289,98.15 C213.157,92.195 210.124,85.585 207.426,79.287 C205.482,75.063 204.292,70.838 201.913,66.933 C190.772,48.502 177.525,39.086 160.074,26.393 C155.824,23.303 153.614,20.931 149.516,18.127 C147.279,16.597 120.581,-2.355 119.753,0.245 C116.785,9.574 117.518,19.571 115.169,18.91 C113.345,18.397 100.138,15.241 99.938,15.369 C98.322,16.407 102.161,28.962 104.227,34.762 C105.265,37.676 115.658,54.436 116.949,57.25 C122.084,69.349 124.498,72.463 126.773,76.91 C127.958,79.186 136.755,92.136 140.477,97.042 L151.981,108.885 C153.494,111.916 155.547,113.753 156.951,116.798 C160.307,122.104 164.504,127.31 169.373,130.992 C171.96,132.951 174.016,136.305 177.259,137.501 L177.259,137.174 L177.047,137.174 C176.395,136.201 175.425,135.764 174.559,135.009 C172.614,133.056 170.457,130.671 168.937,128.504 C164.398,122.436 160.819,115.475 156.833,108.775 C153.087,102.48 148.267,96.399 147.107,95.171 C135.278,82.66 133.205,76.174 132.018,74.541 C124.638,61.222 124.701,59.79 121.283,54.046 C113.994,41.795 108.292,37.989 103.893,20.655 C103.835,20.429 105.47,20.057 114.233,23.263 C118.645,24.877 118.963,23.872 120.392,17.003 C120.801,15.042 122.28,7.156 124.222,7.703 L136.835,15.143 C150.112,24.094 159.099,32.895 163.751,35.823 C177.908,44.82 189.585,57.614 197.473,72.896 C198.773,75.385 199.319,77.664 200.506,80.261 C202.777,85.583 205.59,91.003 207.856,96.201 C210.124,101.296 212.291,106.495 215.539,110.728 C217.156,113.001 219.865,115.804 222.785,116.997 C224.942,117.97 228.65,120.752 230.426,122.186 C233.299,124.507 233.741,125.281 237.61,128.707 C239.227,130.14 240.815,131.249 241.612,133.27" fill="#9CC6EF"/>
    <path d="M133.037,12.25 C133.037,12.25 128.989,13.779 128.09,16.117 C127.19,18.456 127.029,21.364 127.096,22.957 C127.187,25.122 130.069,29.61 130.878,29.88 C131.688,30.149 136.545,32.398 140.683,30.599 C144.82,28.8 145.27,22.414 144.82,20.615 C144.371,18.816 138.884,13.779 138.884,13.779 C138.884,13.779 136.856,16.568 136.856,16.568 C136.856,16.568 140.593,19.086 140.953,21.874 C141.312,24.663 139.783,26.911 138.614,27.001 C137.445,27.091 131.44,27.722 130.72,23.944 C130,20.166 130.546,18.922 132.228,17.107 C133.308,15.94 137.098,16.744 137.098,16.744 C137.098,16.744 139.484,13.579 139.484,13.579 C139.484,13.579 133.127,12.07 133.037,12.25 z" fill="#9CC6EF"/>
  </g>
</svg>
