<?xml version="1.0" encoding="UTF-8"?>
<!DOCTYPE svg PUBLIC "-//W3C//DTD SVG 1.1//EN" "http://www.w3.org/Graphics/SVG/1.1/DTD/svg11.dtd">
<svg version="1.1" xmlns="http://www.w3.org/2000/svg" xmlns:xlink="http://www.w3.org/1999/xlink" x="0" y="0" width="165.326" height="167.419" viewBox="0, 0, 165.326, 167.419">
  <g id="shishamo-nav-logo-4" transform="translate(0, -0)">
    <path d="M131.812,135.01 C130.19,135.659 127.598,135.659 127.377,137.719 C128.248,138.585 128.351,139.993 129.114,141.191 C130.407,143.358 132.673,146.281 134.731,147.802 C137.002,149.537 139.273,151.265 141.654,152.783 C145.867,155.395 150.626,156.906 154.728,159.509 C157.114,161.025 159.484,162.974 161.87,164.605 C163.055,165.471 163.806,166.883 165.326,167.419 L165.326,167.091 C164.564,166.118 164.351,164.709 163.598,163.618 C162.519,162.543 161.436,161.561 160.353,160.482 C157.216,156.255 153.319,152.573 149.113,149.537 C145.65,147.146 138.067,143.879 136.727,139.859 C136.458,139.052 139.43,138.212 140.535,137.881 L151.251,135.287 C149.295,133.34 146.002,128.799 144.072,126.828 C138.767,121.413 137.617,119.83 131.348,115.921 C122.929,110.025 121.978,107.586 121.218,106.496 C119.271,104.112 118.186,100.973 116.783,98.15 C113.651,92.195 110.618,85.585 107.92,79.287 C105.976,75.063 104.786,70.838 102.407,66.933 C91.266,48.502 78.019,39.086 60.568,26.393 C56.318,23.303 54.108,20.931 50.01,18.127 C47.773,16.597 21.075,-2.355 20.247,0.245 C17.279,9.574 22.239,26.706 1.501,14.919 C0.987,14.628 0.514,14.267 0.318,14.919 C-1.118,19.708 2.655,28.962 4.721,34.762 C5.759,37.676 16.152,54.436 17.443,57.25 C22.578,69.349 24.992,72.463 27.267,76.91 C28.452,79.186 37.249,92.136 40.971,97.042 L52.475,108.885 C53.988,111.916 56.041,113.753 57.445,116.798 C60.801,122.104 64.998,127.31 69.867,130.992 C72.454,132.951 74.51,136.305 77.753,137.501 L77.753,137.174 L77.541,137.174 C76.889,136.201 75.919,135.764 75.053,135.009 C73.108,133.056 70.951,130.671 69.431,128.504 C64.892,122.436 61.313,115.475 57.327,108.775 C53.581,102.48 48.761,96.399 47.601,95.171 C35.772,82.66 33.699,76.174 32.512,74.541 C25.132,61.222 25.195,59.79 21.777,54.046 C14.488,41.795 8.009,30.105 5.394,21.962 C5.17,21.266 7.257,22.409 9.839,22.957 C15.539,24.165 19.362,20.838 21.481,16.442 C22.35,14.637 22.774,7.156 24.716,7.703 L37.329,15.143 C50.606,24.094 59.593,32.895 64.245,35.823 C78.402,44.82 90.079,57.614 97.967,72.896 C99.267,75.385 99.813,77.664 101,80.261 C103.271,85.583 106.084,91.003 108.35,96.201 C110.618,101.296 112.785,106.495 116.033,110.728 C117.65,113.001 120.359,115.804 123.279,116.997 C125.436,117.97 129.144,120.752 130.92,122.186 C133.793,124.507 134.235,125.281 138.104,128.707 C139.721,130.14 141.309,131.249 142.106,133.27" fill="#9CC6EF" display="none"/>
    <path d="M131.812,135.01 C130.19,135.659 127.598,135.659 127.377,137.719 C128.248,138.585 128.351,139.993 129.114,141.191 C130.407,143.358 132.673,146.281 134.731,147.802 C137.002,149.537 139.273,151.265 141.654,152.783 C145.867,155.395 150.626,156.906 154.728,159.509 C157.114,161.025 159.484,162.974 161.87,164.605 C163.055,165.471 163.806,166.883 165.326,167.419 L165.326,167.091 C164.564,166.118 164.351,164.709 163.598,163.618 C162.519,162.543 161.436,161.561 160.353,160.482 C157.216,156.255 153.319,152.573 149.113,149.537 C145.65,147.146 138.067,143.879 136.727,139.859 C136.458,139.052 139.43,138.212 140.535,137.881 L151.251,135.287 C149.295,133.34 146.002,128.799 144.072,126.828 C138.767,121.413 137.617,119.83 131.348,115.921 C122.929,110.025 121.978,107.586 121.218,106.496 C119.271,104.112 118.186,100.973 116.783,98.15 C113.651,92.195 110.618,85.585 107.92,79.287 C105.976,75.063 104.786,70.838 102.407,66.933 C91.266,48.502 78.019,39.086 60.568,26.393 C56.318,23.303 54.108,20.931 50.01,18.127 C47.773,16.597 21.075,-2.355 20.247,0.245 C17.279,9.574 22.239,26.706 1.501,14.919 C0.987,14.628 0.514,14.267 0.318,14.919 C-1.118,19.708 2.655,28.962 4.721,34.762 C5.759,37.676 16.152,54.436 17.443,57.25 C22.578,69.349 24.992,72.463 27.267,76.91 C28.452,79.186 37.249,92.136 40.971,97.042 L52.475,108.885 C53.988,111.916 56.041,113.753 57.445,116.798 C60.801,122.104 64.998,127.31 69.867,130.992 C72.454,132.951 74.51,136.305 77.753,137.501 L77.753,137.174 L77.541,137.174 C76.889,136.201 75.919,135.764 75.053,135.009 C73.108,133.056 70.951,130.671 69.431,128.504 C64.892,122.436 61.313,115.475 57.327,108.775 C53.581,102.48 48.761,96.399 47.601,95.171 C35.772,82.66 33.699,76.174 32.512,74.541 C25.132,61.222 25.195,59.79 21.777,54.046 C14.488,41.795 8.009,30.105 5.394,21.962 C5.17,21.266 7.257,22.409 9.839,22.957 C15.539,24.165 19.362,20.838 21.481,16.442 C22.35,14.637 22.774,7.156 24.716,7.703 L37.329,15.143 C50.606,24.094 59.593,32.895 64.245,35.823 C78.402,44.82 90.079,57.614 97.967,72.896 C99.267,75.385 99.813,77.664 101,80.261 C103.271,85.583 106.084,91.003 108.35,96.201 C110.618,101.296 112.785,106.495 116.033,110.728 C117.65,113.001 120.359,115.804 123.279,116.997 C125.436,117.97 129.144,120.752 130.92,122.186 C133.793,124.507 134.235,125.281 138.104,128.707 C139.721,130.14 141.309,131.249 142.106,133.27" fill="#9CC6EF" display="none"/>
    <path d="M131.812,135.01 C130.19,135.659 127.598,135.659 127.377,137.719 C128.248,138.585 128.351,139.993 129.114,141.191 C130.407,143.358 132.673,146.281 134.731,147.802 C137.002,149.537 139.273,151.265 141.654,152.783 C145.867,155.395 150.626,156.906 154.728,159.509 C157.114,161.025 159.484,162.974 161.87,164.605 C163.055,165.471 163.806,166.883 165.326,167.419 L165.326,167.091 C164.564,166.118 164.351,164.709 163.598,163.618 C162.519,162.543 161.436,161.561 160.353,160.482 C157.216,156.255 153.319,152.573 149.113,149.537 C145.65,147.146 138.067,143.879 136.727,139.859 C136.458,139.052 139.43,138.212 140.535,137.881 L151.251,135.287 C149.295,133.34 146.002,128.799 144.072,126.828 C138.767,121.413 137.617,119.83 131.348,115.921 C122.929,110.025 121.978,107.586 121.218,106.496 C119.271,104.112 118.186,100.973 116.783,98.15 C113.651,92.195 110.618,85.585 107.92,79.287 C105.976,75.063 104.786,70.838 102.407,66.933 C91.266,48.502 78.019,39.086 60.568,26.393 C56.318,23.303 54.108,20.931 50.01,18.127 C47.773,16.597 21.075,-2.355 20.247,0.245 C17.279,9.574 22.239,26.706 1.501,14.919 C0.987,14.628 0.514,14.267 0.318,14.919 C-1.118,19.708 2.655,28.962 4.721,34.762 C5.759,37.676 16.152,54.436 17.443,57.25 C22.578,69.349 24.992,72.463 27.267,76.91 C28.452,79.186 37.249,92.136 40.971,97.042 L52.475,108.885 C53.988,111.916 56.041,113.753 57.445,116.798 C60.801,122.104 64.998,127.31 69.867,130.992 C72.454,132.951 74.51,136.305 77.753,137.501 L77.753,137.174 L77.541,137.174 C76.889,136.201 75.919,135.764 75.053,135.009 C73.108,133.056 70.951,130.671 69.431,128.504 C64.892,122.436 61.313,115.475 57.327,108.775 C53.581,102.48 48.761,96.399 47.601,95.171 C35.772,82.66 33.699,76.174 32.512,74.541 C25.132,61.222 25.195,59.79 21.777,54.046 C14.488,41.795 8.009,30.105 5.394,21.962 C5.17,21.266 7.257,22.409 9.839,22.957 C15.539,24.165 19.362,20.838 21.481,16.442 C22.35,14.637 22.774,7.156 24.716,7.703 L37.329,15.143 C50.606,24.094 59.593,32.895 64.245,35.823 C78.402,44.82 90.079,57.614 97.967,72.896 C99.267,75.385 99.813,77.664 101,80.261 C103.271,85.583 106.084,91.003 108.35,96.201 C110.618,101.296 112.785,106.495 116.033,110.728 C117.65,113.001 120.359,115.804 123.279,116.997 C125.436,117.97 129.144,120.752 130.92,122.186 C133.793,124.507 134.235,125.281 138.104,128.707 C139.721,130.14 141.309,131.249 142.106,133.27" fill="#9CC6EF" display="none"/>
    <path d="M131.812,135.01 C130.19,135.659 127.598,135.659 127.377,137.719 C128.248,138.585 128.351,139.993 129.114,141.191 C130.407,143.358 132.673,146.281 134.731,147.802 C137.002,149.537 139.273,151.265 141.654,152.783 C145.867,155.395 150.626,156.906 154.728,159.509 C157.114,161.025 159.484,162.974 161.87,164.605 C163.055,165.471 163.806,166.883 165.326,167.419 L165.326,167.091 C164.564,166.118 164.351,164.709 163.598,163.618 C162.519,162.543 161.436,161.561 160.353,160.482 C157.216,156.255 153.319,152.573 149.113,149.537 C145.65,147.146 138.067,143.879 136.727,139.859 C136.458,139.052 139.43,138.212 140.535,137.881 L151.251,135.287 C149.295,133.34 146.002,128.799 144.072,126.828 C138.767,121.413 137.617,119.83 131.348,115.921 C122.929,110.025 121.978,107.586 121.218,106.496 C119.271,104.112 118.186,100.973 116.783,98.15 C113.651,92.195 110.618,85.585 107.92,79.287 C105.976,75.063 104.786,70.838 102.407,66.933 C91.266,48.502 78.019,39.086 60.568,26.393 C56.318,23.303 54.108,20.931 50.01,18.127 C47.773,16.597 21.075,-2.355 20.247,0.245 C17.279,9.574 18.012,19.571 15.663,18.91 C13.839,18.397 0.632,15.241 0.432,15.369 C-1.184,16.407 2.655,28.962 4.721,34.762 C5.759,37.676 16.152,54.436 17.443,57.25 C22.578,69.349 24.992,72.463 27.267,76.91 C28.452,79.186 37.249,92.136 40.971,97.042 L52.475,108.885 C53.988,111.916 56.041,113.753 57.445,116.798 C60.801,122.104 64.998,127.31 69.867,130.992 C72.454,132.951 74.51,136.305 77.753,137.501 L77.753,137.174 L77.541,137.174 C76.889,136.201 75.919,135.764 75.053,135.009 C73.108,133.056 70.951,130.671 69.431,128.504 C64.892,122.436 61.313,115.475 57.327,108.775 C53.581,102.48 48.761,96.399 47.601,95.171 C35.772,82.66 33.699,76.174 32.512,74.541 C25.132,61.222 25.195,59.79 21.777,54.046 C14.488,41.795 8.786,37.989 4.387,20.655 C4.329,20.429 5.964,20.057 14.727,23.263 C19.139,24.877 19.457,23.872 20.886,17.003 C21.295,15.042 22.774,7.156 24.716,7.703 L37.329,15.143 C50.606,24.094 59.593,32.895 64.245,35.823 C78.402,44.82 90.079,57.614 97.967,72.896 C99.267,75.385 99.813,77.664 101,80.261 C103.271,85.583 106.084,91.003 108.35,96.201 C110.618,101.296 112.785,106.495 116.033,110.728 C117.65,113.001 120.359,115.804 123.279,116.997 C125.436,117.97 129.144,120.752 130.92,122.186 C133.793,124.507 134.235,125.281 138.104,128.707 C139.721,130.14 141.309,131.249 142.106,133.27" fill="#FFFFFF"/>
    <path d="M33.531,12.25 C33.531,12.25 29.483,13.779 28.584,16.117 C27.684,18.456 27.523,21.364 27.59,22.957 C27.681,25.122 30.563,29.61 31.372,29.88 C32.182,30.149 37.039,32.398 41.177,30.599 C45.314,28.8 45.764,22.414 45.314,20.615 C44.865,18.816 39.378,13.779 39.378,13.779 C39.378,13.779 37.35,16.568 37.35,16.568 C37.35,16.568 41.087,19.086 41.447,21.874 C41.806,24.663 40.277,26.911 39.108,27.001 C37.939,27.091 31.934,27.722 31.214,23.944 C30.494,20.166 31.04,18.922 32.722,17.107 C33.802,15.94 37.592,16.744 37.592,16.744 C37.592,16.744 39.978,13.579 39.978,13.579 C39.978,13.579 33.621,12.07 33.531,12.25 z" fill="#FFFFFF"/>
  </g>
</svg>
