<?xml version="1.0" encoding="utf-8"?>
<!-- Generator: Adobe Illustrator 22.1.0, SVG Export Plug-In . SVG Version: 6.00 Build 0)  -->
<svg version="1.1" id="shishamo" xmlns="http://www.w3.org/2000/svg" xmlns:xlink="http://www.w3.org/1999/xlink" x="0px" y="0px"
	 viewBox="0 0 165.3 167.4" style="enable-background:new 0 0 165.3 167.4;" xml:space="preserve">
<g id="shishamo-logo" transform="translate(0, -0)">
	<path d="M133.6,136.6c-1.6,0.6-2.4,1-2.4,1c1.6,2.1,5.4,6.1,8.1,9c3,2.6,6.1,5.8,8.5,7.4c4.2,2.6,4.3,2.7,8.4,5.3
		c2.4,1.5,2.4,2,4.8,3.6c1.2,0.9,2.8,4,4.3,4.5v-0.3c-0.8-1-1-2.4-1.7-3.5c-1.1-1.1-2.2-2.1-3.2-3.1c-3.9-4.3-5.9-5.2-8.6-8.4
		c-3.5-2.4-7.1-6.4-12.3-12.5c0,0,1.3-0.9,2.4-1.2l2.8-2c-2-1.9-11.8-14.2-13.7-16.2c-8.4-9.4-9-12.6-9.7-13.7
		c-1.9-2.4-3-5.5-4.4-8.3c-3.1-6-6.2-12.6-8.9-18.9c-1.9-4.2-3.1-8.4-5.5-12.4C91.3,48.5,78,39.1,60.6,26.4
		c-4.2-3.1-6.5-5.5-10.6-8.3C47.8,16.6,21.1-2.4,20.2,0.2c-3,9.3-2.2,19.3-4.6,18.7c-1.8-0.5-15-3.7-15.2-3.5
		c-1.6,1,2.2,13.6,4.3,19.4c1,2.9,11.4,19.7,12.7,22.5c5.1,12.1,7.5,15.2,9.8,19.7c1.2,2.3,10,15.2,13.7,20.1l11.5,11.8
		c1.5,3,3.6,4.9,5,7.9c3.4,5.3,7.6,10.5,12.4,14.2c2.6,2,4.6,5.3,7.9,6.5v-0.3h-0.2c-0.7-1-1.6-1.4-2.5-2.2c-1.9-2-4.1-4.3-5.6-6.5
		c-4.5-6.1-8.1-13-12.1-19.7c-3.7-6.3-8.6-12.4-9.7-13.6c-11.8-12.5-13.9-19-15.1-20.6C25.1,61.2,25.2,59.8,21.8,54
		C14.5,41.8,8.8,38,4.4,20.7c-0.1-0.2,1.6-0.6,10.3,2.6c4.4,1.6,4.7,0.6,6.2-6.3c0.4-2,1.9-9.8,3.8-9.3l12.6,7.4
		c13.3,9,22.3,17.8,26.9,20.7c14.2,9,25.8,21.8,33.7,37.1c1.3,2.5,1.8,4.8,3,7.4c2.3,5.3,5.1,10.7,7.3,15.9
		c2.3,5.1,4.4,10.3,7.7,14.5c1.6,2.3,8.3,10.1,13.5,15.6c1.6,1.4,7,6.4,7.8,8.5"/>
	<path d="M53.9,40.4c0,0-0.1,5.4,0,11c0,2.3-0.1,4.7-0.4,7c-1,7.9-10.4,10.8-22.9,19c-1.4,0.9-3.1-5.6-3.1-5.6s12.8-2.8,18.8-9.9
		c3.2-3.8,3.6-6.1,4.9-12.7C51.7,47,53.1,43.8,53.9,40.4z"/>
	<path d="M33.5,12.2c0,0-4,1.5-4.9,3.9c-0.9,2.3-1.1,5.2-1,6.8c0.1,2.2,3,6.7,3.8,6.9c0.8,0.3,5.7,2.5,9.8,0.7
		c4.1-1.8,4.6-8.2,4.1-10c-0.4-1.8-5.9-6.8-5.9-6.8l-2,2.8c0,0,3.7,2.5,4.1,5.3c0.4,2.8-1.2,5-2.3,5.1c-1.2,0.1-7.2,0.7-7.9-3.1
		c-0.7-3.8-0.2-5,1.5-6.8c1.1-1.2,4.9-0.4,4.9-0.4l2.4-3.2C40,13.6,33.6,12.1,33.5,12.2z"/>
</g>
</svg>
